<svg width="32" height="32" viewBox="0 0 32 32" fill="none" xmlns="http://www.w3.org/2000/svg">
<path d="M11.4387 27C10.6005 27 10.7509 26.6897 10.4501 25.9241L8 18.1448L23.2162 9L25 9.45517L23.5171 13.3448L11.4387 27Z" fill="#C8DAEA"/>
<path d="M13 27C13.5714 27 13.819 26.6744 14.1429 26.3023C14.6381 25.7209 21 18.1628 21 18.1628L17.0952 17L13.4762 19.7907L13 26.7674V27Z" fill="#A9C9DD"/>
<path d="M11.9568 20.5243L22.3401 27.7027C23.52 28.3059 24.3781 28.0043 24.6785 26.6772L28.9047 8.0173C29.3338 6.38857 28.2397 5.6647 27.1027 6.14728L2.30297 15.1153C0.608182 15.7588 0.629635 16.6435 2.00263 17.0255L8.37418 18.8955L23.1124 10.1889C23.7989 9.78677 24.4425 10.008 23.9276 10.4503L11.9568 20.5243Z" fill="url(#paint0_linear_302_26)"/>
<defs>
<linearGradient id="paint0_linear_302_26" x1="18.1763" y1="16.373" x2="23.0544" y2="24.7003" gradientUnits="userSpaceOnUse">
<stop stop-color="#00AAFF"/>
<stop offset="1" stop-color="#00AAFF"/>
</linearGradient>
</defs>
</svg>
