<svg width="32" height="32" viewBox="0 0 32 32" fill="none" xmlns="http://www.w3.org/2000/svg">
<path d="M23.6786 18.3877C23.6163 18.3577 21.2834 17.209 20.8688 17.0598C20.6996 16.999 20.5183 16.9397 20.3255 16.9397C20.0105 16.9397 19.7458 17.0967 19.5397 17.405C19.3067 17.7514 18.6012 18.576 18.3832 18.8224C18.3548 18.8549 18.3159 18.8937 18.2926 18.8937C18.2718 18.8937 17.9107 18.7451 17.8014 18.6976C15.2989 17.6105 13.3993 14.9964 13.1389 14.5556C13.1017 14.4922 13.1001 14.4634 13.0998 14.4634C13.1089 14.4298 13.1931 14.3455 13.2365 14.302C13.3636 14.1762 13.5013 14.0105 13.6344 13.8502C13.6975 13.7743 13.7607 13.6982 13.8227 13.6265C14.016 13.4017 14.102 13.2271 14.2017 13.025L14.254 12.9199C14.4975 12.4361 14.2895 12.0278 14.2223 11.8959C14.1671 11.7856 13.1821 9.40824 13.0774 9.15847C12.8255 8.55577 12.4927 8.27515 12.0303 8.27515C11.9874 8.27515 12.0303 8.27515 11.8503 8.28273C11.6312 8.29198 10.438 8.44907 9.91039 8.78164C9.35091 9.13437 8.40442 10.2587 8.40442 12.2361C8.40442 14.0157 9.53377 15.696 10.0187 16.3351C10.0307 16.3512 10.0528 16.3839 10.0849 16.4309C11.9419 19.1428 14.2568 21.1525 16.6035 22.09C18.8627 22.9924 19.9325 23.0968 20.5407 23.0968C20.5408 23.0968 20.5408 23.0968 20.5408 23.0968C20.7964 23.0968 21.001 23.0767 21.1815 23.0589L21.296 23.048C22.0764 22.9788 23.7915 22.0901 24.1817 21.006C24.489 20.152 24.57 19.219 24.3656 18.8804C24.2255 18.6502 23.9842 18.5344 23.6786 18.3877Z" fill="black"/>
<path d="M16.2845 0C7.61792 0 0.567114 6.99782 0.567114 15.5993C0.567114 18.3813 1.31163 21.1045 2.72202 23.4879L0.0224902 31.451C-0.0277956 31.5995 0.00960701 31.7636 0.119425 31.8754C0.198698 31.9564 0.306231 32 0.416049 32C0.458127 32 0.500516 31.9937 0.541867 31.9805L8.84525 29.3419C11.1175 30.5559 13.6856 31.1968 16.2846 31.1968C24.9504 31.1969 32.0005 24.1998 32.0005 15.5993C32.0005 6.99782 24.9504 0 16.2845 0ZM16.2845 27.9474C13.8389 27.9474 11.4702 27.2412 9.43403 25.9051C9.36556 25.8602 9.28608 25.8371 9.20608 25.8371C9.1638 25.8371 9.12141 25.8435 9.08016 25.8566L4.92068 27.1788L6.26343 23.2174C6.30686 23.0891 6.28514 22.9477 6.20514 22.8384C4.6546 20.7198 3.83496 18.2166 3.83496 15.5993C3.83496 8.78961 9.4198 3.24945 16.2844 3.24945C23.1482 3.24945 28.7324 8.78961 28.7324 15.5993C28.7325 22.4081 23.1484 27.9474 16.2845 27.9474Z" fill="black"/>
</svg>
